# xmcd CD database file
#
# Track frame offsets:
#	150
#	22937
#	50050
#	72332
#	91592
#	114167
#	142467
#	155907
#	191835
#	211855
#	236352
#
# Disc length: 3485 seconds
#
# Revision: 0
# Processed by: cddbd v1.5.1PL0 Copyright (c) Steve Scherf et al.
# Submitted via: CDex 1.51
#
DISCID=990d9b0b
DTITLE=Vic Dickenson - Gentleman of the Trombone
DYEAR=1975
DGENRE=Jazz
TTITLE0=Too Marvelous for Words
TTITLE1=Nice and Easy Blues
TTITLE2=Just Too Late
TTITLE3=Shine
TTITLE4=Sweet Sue, Just You
TTITLE5=Bye Bye Blackbird
TTITLE6=More Rain
TTITLE7=S'posin'
TTITLE8=Love Letters in the Sand
TTITLE9=Christopher Columbus
TTITLE10=I Ain't Got Nobody
EXTD=YEAR: 1975
EXTT0=
EXTT1=
EXTT2=
EXTT3=
EXTT4=
EXTT5=
EXTT6=
EXTT7=
EXTT8=
EXTT9=
EXTT10=
PLAYORDER=
